<svg width="102" height="49" viewBox="0 0 102 49" fill="none" xmlns="http://www.w3.org/2000/svg">
<path fill-rule="evenodd" clip-rule="evenodd" d="M19.0527 42.2773C28.9939 42.2773 37.0527 34.2185 37.0527 24.2773C37.0527 14.3362 28.9939 6.27734 19.0527 6.27734C9.11161 6.27734 1.05273 14.3362 1.05273 24.2773C1.05273 34.2185 9.11161 42.2773 19.0527 42.2773Z" fill="#52A4DF" stroke="white"/>
<path d="M26.2455 15.8337L8.21519 23.086C7.63118 23.3209 7.66656 24.1859 8.26772 24.3691L12.8494 25.7656L14.5593 31.3657C14.7379 31.9507 15.4561 32.128 15.8719 31.6899L18.2407 29.1934L22.8886 32.7148C23.4574 33.1457 24.2675 32.8255 24.4119 32.1127L27.4902 16.9218C27.641 16.1777 26.9317 15.5577 26.2455 15.8337ZM23.985 19.205L15.61 26.8492C15.5265 26.9254 15.4734 27.0309 15.461 27.1452L15.1385 30.1037C15.128 30.2002 14.9972 30.213 14.9693 30.1203L13.6426 25.708C13.5819 25.506 13.6611 25.2872 13.8352 25.1757L23.7252 18.8446C23.9526 18.6989 24.1855 19.022 23.985 19.205Z" fill="white"/>
<path fill-rule="evenodd" clip-rule="evenodd" d="M51.0527 42.2773C60.9939 42.2773 69.0527 34.2185 69.0527 24.2773C69.0527 14.3362 60.9939 6.27734 51.0527 6.27734C41.1116 6.27734 33.0527 14.3362 33.0527 24.2773C33.0527 34.2185 41.1116 42.2773 51.0527 42.2773Z" fill="#4C77A6" stroke="white"/>
<path fill-rule="evenodd" clip-rule="evenodd" d="M51.5237 29.4866C51.5237 29.4866 51.835 29.4523 51.9945 29.2826C52.1404 29.1272 52.1354 28.8338 52.1354 28.8338C52.1354 28.8338 52.116 27.4637 52.758 27.2615C53.3908 27.0625 54.2033 28.5863 55.0655 29.1723C55.7169 29.6153 56.2113 29.5184 56.2113 29.5184L58.5154 29.4866C58.5154 29.4866 59.7202 29.413 59.149 28.4743C59.1018 28.3974 58.8158 27.7797 57.4363 26.5108C55.9911 25.1826 56.1851 25.3974 57.9248 23.0996C58.9845 21.7003 59.4081 20.846 59.2756 20.4807C59.1499 20.1313 58.3703 20.2241 58.3703 20.2241L55.7768 20.24C55.7768 20.24 55.5844 20.2141 55.4418 20.2985C55.3026 20.3813 55.2123 20.5744 55.2123 20.5744C55.2123 20.5744 54.8023 21.6568 54.2548 22.578C53.0997 24.5206 52.6382 24.6234 52.4492 24.503C52.0097 24.2213 52.1194 23.3729 52.1194 22.7702C52.1194 20.887 52.4079 20.1021 51.5583 19.899C51.2765 19.8313 51.0689 19.787 50.3476 19.7794C49.422 19.7702 48.6391 19.7828 48.1953 19.9976C47.9 20.1405 47.6722 20.4598 47.8114 20.4782C47.9827 20.5008 48.3708 20.5819 48.5767 20.8594C48.8424 21.218 48.8331 22.0221 48.8331 22.0221C48.8331 22.0221 48.9859 24.2389 48.4763 24.5139C48.127 24.7028 47.6478 24.3175 46.6176 22.5546C46.0903 21.6518 45.6921 20.6538 45.6921 20.6538C45.6921 20.6538 45.6153 20.4674 45.4778 20.3671C45.3116 20.2459 45.0795 20.2082 45.0795 20.2082L42.6151 20.2241C42.6151 20.2241 42.2447 20.2342 42.1089 20.3938C41.9882 20.5351 42.0996 20.8285 42.0996 20.8285C42.0996 20.8285 44.0291 25.3013 46.2143 27.5557C48.2181 29.622 50.4927 29.4866 50.4927 29.4866H51.5237Z" fill="white"/>
<path fill-rule="evenodd" clip-rule="evenodd" d="M83.0527 42.2773C92.9939 42.2773 101.053 34.2185 101.053 24.2773C101.053 14.3362 92.9939 6.27734 83.0527 6.27734C73.1116 6.27734 65.0527 14.3362 65.0527 24.2773C65.0527 34.2185 73.1116 42.2773 83.0527 42.2773Z" fill="#3CD655" stroke="white"/>
<path fill-rule="evenodd" clip-rule="evenodd" d="M83.2572 34.2172C89.358 34.2172 94.3027 29.4737 94.3027 23.6223C94.3027 17.7708 89.3585 13.0273 83.2572 13.0273C77.1567 13.0273 72.2115 17.7708 72.2115 23.6223C72.2115 25.624 72.7907 27.4964 73.7965 29.0929L71.8027 34.7773L77.918 32.8989C79.501 33.7387 81.3205 34.2172 83.2572 34.2172ZM73.9707 23.6224C73.9707 18.7108 78.1362 14.7148 83.2572 14.7148C88.378 14.7148 92.544 18.7113 92.544 23.6229C92.544 28.5346 88.3777 32.53 83.2575 32.53C81.371 32.53 79.6145 31.9872 78.1482 31.0566L74.5795 32.153L75.7397 28.8449C74.628 27.3765 73.9707 25.5715 73.9707 23.6224Z" fill="white"/>
<path fill-rule="evenodd" clip-rule="evenodd" d="M88.8337 26.0639C88.7654 25.9559 88.5852 25.8907 88.3147 25.7609C88.0437 25.6311 86.7122 25.0025 86.4647 24.9163C86.2164 24.8297 86.0354 24.7862 85.8552 25.046C85.6749 25.3061 85.1559 25.8907 84.9977 26.0639C84.8397 26.2377 84.6819 26.2594 84.4109 26.1294C84.1404 25.9997 83.2682 25.7251 82.2339 24.8406C81.4292 24.1524 80.8857 23.3027 80.7277 23.0424C80.5699 22.7826 80.7112 22.6422 80.8464 22.5129C80.9684 22.3964 81.1174 22.2096 81.2527 22.0581C81.3884 21.9063 81.4334 21.7983 81.5232 21.6248C81.6139 21.4515 81.5687 21.3 81.5007 21.1697C81.4332 21.0399 80.8912 19.762 80.6657 19.2419C80.4402 18.7223 80.2149 18.8089 80.0567 18.8089C79.8989 18.8089 79.7182 18.7871 79.5377 18.7871C79.3572 18.7871 79.0637 18.8521 78.8154 19.1119C78.5674 19.3719 77.8682 20.0003 77.8682 21.278C77.8682 22.5559 78.8379 23.7906 78.9737 23.9636C79.1089 24.1366 80.8462 26.8443 83.5987 27.8842C86.3514 28.9236 86.3514 28.5768 86.8479 28.5333C87.3439 28.49 88.4494 27.9052 88.6759 27.2991C88.9009 26.692 88.9009 26.1722 88.8337 26.0639Z" fill="white"/>
</svg>
