<svg width="124" height="49" viewBox="0 0 124 49" fill="none" xmlns="http://www.w3.org/2000/svg">
<path fill-rule="evenodd" clip-rule="evenodd" d="M18.5527 42.2773C28.4939 42.2773 36.5527 34.2185 36.5527 24.2773C36.5527 14.3362 28.4939 6.27734 18.5527 6.27734C8.61161 6.27734 0.552734 14.3362 0.552734 24.2773C0.552734 34.2185 8.61161 42.2773 18.5527 42.2773Z" fill="#52A4DF" stroke="white"/>
<path d="M25.7455 15.8337L7.71519 23.086C7.13118 23.3209 7.16656 24.1859 7.76772 24.3691L12.3494 25.7656L14.0593 31.3657C14.2379 31.9507 14.9561 32.128 15.3719 31.6899L17.7407 29.1934L22.3886 32.7148C22.9574 33.1457 23.7675 32.8255 23.9119 32.1127L26.9902 16.9218C27.141 16.1777 26.4317 15.5577 25.7455 15.8337ZM23.485 19.205L15.11 26.8492C15.0265 26.9254 14.9734 27.0309 14.961 27.1452L14.6385 30.1037C14.628 30.2002 14.4972 30.213 14.4693 30.1203L13.1426 25.708C13.0819 25.506 13.1611 25.2872 13.3352 25.1757L23.2252 18.8446C23.4526 18.6989 23.6855 19.022 23.485 19.205Z" fill="white"/>
<path fill-rule="evenodd" clip-rule="evenodd" d="M50.5527 42.2773C60.4939 42.2773 68.5527 34.2185 68.5527 24.2773C68.5527 14.3362 60.4939 6.27734 50.5527 6.27734C40.6116 6.27734 32.5527 14.3362 32.5527 24.2773C32.5527 34.2185 40.6116 42.2773 50.5527 42.2773Z" fill="#4C77A6" stroke="white"/>
<path fill-rule="evenodd" clip-rule="evenodd" d="M51.0237 29.4866C51.0237 29.4866 51.335 29.4523 51.4945 29.2826C51.6404 29.1272 51.6354 28.8338 51.6354 28.8338C51.6354 28.8338 51.616 27.4637 52.258 27.2615C52.8908 27.0625 53.7033 28.5863 54.5655 29.1723C55.2169 29.6153 55.7113 29.5184 55.7113 29.5184L58.0154 29.4866C58.0154 29.4866 59.2202 29.413 58.649 28.4743C58.6018 28.3974 58.3158 27.7797 56.9363 26.5108C55.4911 25.1826 55.6851 25.3974 57.4248 23.0996C58.4845 21.7003 58.9081 20.846 58.7756 20.4807C58.6499 20.1313 57.8703 20.2241 57.8703 20.2241L55.2768 20.24C55.2768 20.24 55.0844 20.2141 54.9418 20.2985C54.8026 20.3813 54.7123 20.5744 54.7123 20.5744C54.7123 20.5744 54.3023 21.6568 53.7548 22.578C52.5997 24.5206 52.1382 24.6234 51.9492 24.503C51.5097 24.2213 51.6194 23.3729 51.6194 22.7702C51.6194 20.887 51.9079 20.1021 51.0583 19.899C50.7765 19.8313 50.5689 19.787 49.8476 19.7794C48.922 19.7702 48.1391 19.7828 47.6953 19.9976C47.4 20.1405 47.1722 20.4598 47.3114 20.4782C47.4827 20.5008 47.8708 20.5819 48.0767 20.8594C48.3424 21.218 48.3331 22.0221 48.3331 22.0221C48.3331 22.0221 48.4859 24.2389 47.9763 24.5139C47.627 24.7028 47.1478 24.3175 46.1176 22.5546C45.5903 21.6518 45.1921 20.6538 45.1921 20.6538C45.1921 20.6538 45.1153 20.4674 44.9778 20.3671C44.8116 20.2459 44.5795 20.2082 44.5795 20.2082L42.1151 20.2241C42.1151 20.2241 41.7447 20.2342 41.6089 20.3938C41.4882 20.5351 41.5996 20.8285 41.5996 20.8285C41.5996 20.8285 43.5291 25.3013 45.7143 27.5557C47.7181 29.622 49.9927 29.4866 49.9927 29.4866H51.0237Z" fill="white"/>
<path fill-rule="evenodd" clip-rule="evenodd" d="M82.5527 42.2773C92.4939 42.2773 100.553 34.2185 100.553 24.2773C100.553 14.3362 92.4939 6.27734 82.5527 6.27734C72.6116 6.27734 64.5527 14.3362 64.5527 24.2773C64.5527 34.2185 72.6116 42.2773 82.5527 42.2773Z" fill="#3CD655" stroke="white"/>
<path fill-rule="evenodd" clip-rule="evenodd" d="M82.7572 34.2172C88.858 34.2172 93.8027 29.4737 93.8027 23.6223C93.8027 17.7708 88.8585 13.0273 82.7572 13.0273C76.6567 13.0273 71.7115 17.7708 71.7115 23.6223C71.7115 25.624 72.2907 27.4964 73.2965 29.0929L71.3027 34.7773L77.418 32.8989C79.001 33.7387 80.8205 34.2172 82.7572 34.2172ZM73.4707 23.6224C73.4707 18.7108 77.6362 14.7148 82.7572 14.7148C87.878 14.7148 92.044 18.7113 92.044 23.6229C92.044 28.5346 87.8777 32.53 82.7575 32.53C80.871 32.53 79.1145 31.9872 77.6482 31.0566L74.0795 32.153L75.2397 28.8449C74.128 27.3765 73.4707 25.5715 73.4707 23.6224Z" fill="white"/>
<path fill-rule="evenodd" clip-rule="evenodd" d="M88.3338 26.0641C88.2655 25.956 88.0853 25.8908 87.8148 25.761C87.5438 25.6312 86.2123 25.0027 85.9648 24.9164C85.7165 24.8299 85.5355 24.7864 85.3553 25.0462C85.175 25.3062 84.656 25.8908 84.4978 26.0641C84.3398 26.2378 84.182 26.2596 83.911 26.1295C83.6405 25.9998 82.7683 25.7252 81.734 24.8407C80.9293 24.1525 80.3858 23.3028 80.2278 23.0425C80.07 22.7827 80.2113 22.6423 80.3465 22.513C80.4685 22.3965 80.6175 22.2097 80.7528 22.0582C80.8885 21.9064 80.9335 21.7984 81.0233 21.6249C81.114 21.4516 81.0688 21.3001 81.0008 21.1698C80.9333 21.04 80.3913 19.7621 80.1658 19.242C79.9403 18.7225 79.715 18.809 79.5568 18.809C79.399 18.809 79.2183 18.7872 79.0378 18.7872C78.8573 18.7872 78.5638 18.8522 78.3155 19.112C78.0675 19.3721 77.3683 20.0004 77.3683 21.2781C77.3683 22.556 78.338 23.7907 78.4738 23.9637C78.609 24.1368 80.3463 26.8444 83.0988 27.8843C85.8515 28.9237 85.8515 28.5769 86.348 28.5334C86.844 28.4901 87.9495 27.9053 88.176 27.2992C88.401 26.6921 88.401 26.1723 88.3338 26.0641Z" fill="white"/>
<path d="M118.113 12.0373C120.929 12.0373 123.201 9.76534 123.201 6.94934C123.201 4.13334 120.929 1.84534 118.113 1.84534C116.833 1.84534 115.489 2.38934 114.497 3.34934L112.497 5.34934L110.481 3.34934C109.505 2.38934 108.161 1.84534 106.881 1.84534C104.065 1.84534 101.793 4.13334 101.793 6.94934C101.793 9.76534 104.065 12.0373 106.881 12.0373C108.161 12.0373 109.505 11.4933 110.481 10.5493L112.497 8.54934L114.497 10.5493C115.489 11.4933 116.833 12.0373 118.113 12.0373ZM116.097 4.93334C116.641 4.37334 117.377 4.10134 118.113 4.10134C119.681 4.10134 120.945 5.38134 120.945 6.94934C120.945 8.51734 119.681 9.78134 118.113 9.78134C117.377 9.78134 116.657 9.50934 116.097 8.94934L114.097 6.94934L116.097 4.93334ZM106.881 4.10134C107.601 4.10134 108.353 4.37334 108.897 4.93334L110.897 6.94934L108.897 8.94934C108.337 9.50934 107.601 9.78134 106.881 9.78134C105.313 9.78134 104.049 8.51734 104.049 6.94934C104.049 5.38134 105.313 4.10134 106.881 4.10134Z" fill="#434C5D"/>
</svg>
