<svg width="7" height="11" viewBox="0 0 7 11" fill="none" xmlns="http://www.w3.org/2000/svg">
<path d="M3.36156 1.70387C2.63607 1.70387 2.03313 2.0176 1.55273 2.64505L0.552734 1.5127C0.827244 1.06171 1.2243 0.69897 1.74391 0.42446C2.26352 0.14995 2.83705 0.0126953 3.4645 0.0126953C4.42528 0.0126953 5.17528 0.262695 5.7145 0.762695C6.27332 1.25289 6.55273 1.86564 6.55273 2.60093C6.55273 3.24799 6.42528 3.7725 6.17038 4.17446C5.91548 4.56662 5.55764 4.94897 5.09685 5.32152C5.03803 5.37054 4.9596 5.43426 4.86156 5.51269C4.77332 5.59113 4.69979 5.65485 4.64097 5.70387C4.59195 5.74309 4.52332 5.80191 4.43509 5.88034C4.35666 5.95877 4.29783 6.0225 4.25862 6.07152C4.2194 6.11073 4.16548 6.17446 4.09685 6.26269C4.03803 6.34113 3.99881 6.40975 3.9792 6.46858C3.9596 6.5274 3.93019 6.60583 3.89097 6.70387C3.86156 6.80191 3.85175 6.89015 3.86156 6.96858C3.88117 7.04701 3.89097 7.14505 3.89097 7.2627L2.34685 7.2774C2.28803 6.91466 2.28313 6.59603 2.33215 6.32152C2.39097 6.0372 2.51352 5.7823 2.69979 5.55681C2.89587 5.32152 3.05273 5.15485 3.17038 5.05681C3.29783 4.94897 3.49881 4.79211 3.77332 4.58622C4.42038 4.13524 4.74391 3.59603 4.74391 2.96858C4.74391 2.61564 4.61156 2.31662 4.34685 2.07152C4.08215 1.82642 3.75371 1.70387 3.36156 1.70387ZM2.02332 9.36564C2.02332 9.08132 2.13117 8.83132 2.34685 8.61564C2.57234 8.39015 2.85175 8.2774 3.18509 8.2774C3.48901 8.2774 3.74391 8.39015 3.94979 8.61564C4.16548 8.83132 4.27332 9.08132 4.27332 9.36564C4.27332 9.68917 4.17038 9.96858 3.9645 10.2039C3.75862 10.4294 3.49881 10.5421 3.18509 10.5421C2.85175 10.5421 2.57234 10.4294 2.34685 10.2039C2.13117 9.96858 2.02332 9.68917 2.02332 9.36564Z" fill="#BDC0C6"/>
</svg>
