<svg width="22" height="12" viewBox="0 0 22 12" fill="none" xmlns="http://www.w3.org/2000/svg">
<path d="M16.6127 11.0373C19.4287 11.0373 21.7007 8.76534 21.7007 5.94934C21.7007 3.13334 19.4287 0.845344 16.6127 0.845344C15.3327 0.845344 13.9887 1.38934 12.9967 2.34934L10.9967 4.34934L8.98073 2.34934C8.00473 1.38934 6.66073 0.845344 5.38073 0.845344C2.56473 0.845344 0.292734 3.13334 0.292734 5.94934C0.292734 8.76534 2.56473 11.0373 5.38073 11.0373C6.66073 11.0373 8.00473 10.4933 8.98073 9.54934L10.9967 7.54934L12.9967 9.54934C13.9887 10.4933 15.3327 11.0373 16.6127 11.0373ZM14.5967 3.93334C15.1407 3.37334 15.8767 3.10134 16.6127 3.10134C18.1807 3.10134 19.4447 4.38134 19.4447 5.94934C19.4447 7.51734 18.1807 8.78134 16.6127 8.78134C15.8767 8.78134 15.1567 8.50934 14.5967 7.94934L12.5967 5.94934L14.5967 3.93334ZM5.38073 3.10134C6.10073 3.10134 6.85273 3.37334 7.39673 3.93334L9.39674 5.94934L7.39673 7.94934C6.83673 8.50934 6.10073 8.78134 5.38073 8.78134C3.81273 8.78134 2.54873 7.51734 2.54873 5.94934C2.54873 4.38134 3.81273 3.10134 5.38073 3.10134Z" fill="#434C5D"/>
</svg>
