<svg width="53" height="33" viewBox="0 0 53 33" fill="none" xmlns="http://www.w3.org/2000/svg">
<rect x="0.552734" y="0.277344" width="32" height="32" rx="16" fill="#B2E7FA"/>
<path fill-rule="evenodd" clip-rule="evenodd" d="M17.7393 14.9142L17.6469 14.9329V17.5187L17.7393 17.5374C20.4179 18.0948 22.362 20.4923 22.362 23.238V24.0781C22.362 24.6825 21.8713 25.1746 21.2678 25.1746C20.6643 25.1746 20.1736 24.6825 20.1736 24.0781V23.238C20.1736 22.2332 19.7732 21.2988 19.0465 20.6066C18.3675 19.9601 17.4894 19.6118 16.5527 19.6096C15.6161 19.6118 14.738 19.9601 14.059 20.6066C13.3323 21.2988 12.9319 22.2332 12.9319 23.238V24.0781C12.9319 24.6825 12.4412 25.1746 11.8377 25.1746C11.2342 25.1746 10.7435 24.6825 10.7435 24.0781V23.238C10.7435 20.4923 12.6876 18.0948 15.3662 17.5378L15.4586 17.5191V14.9333L15.3662 14.9146C12.6876 14.3572 10.7435 11.9597 10.7435 9.21395V8.37391C10.7435 7.76954 11.2342 7.27734 11.8377 7.27734C12.4412 7.27734 12.9319 7.76954 12.9319 8.37391V9.21395C12.9319 10.2188 13.3323 11.1532 14.059 11.8454C14.738 12.4919 15.6161 12.8402 16.5527 12.8424C17.4894 12.8402 18.3675 12.4919 19.0465 11.8454C19.7732 11.1532 20.1736 10.2188 20.1736 9.21395V8.37391C20.1736 7.76954 20.6643 7.27734 21.2678 7.27734C21.8708 7.27734 22.362 7.76954 22.362 8.37391V9.21352C22.362 11.9593 20.4179 14.3568 17.7393 14.9142ZM16.5533 25.2773C17.7203 25.2773 18.6661 24.3295 18.6661 23.1599C18.6661 21.9907 17.7203 21.0424 16.5533 21.0424C15.3862 21.0424 14.4404 21.9902 14.4404 23.1599C14.4404 24.3295 15.3862 25.2773 16.5533 25.2773Z" fill="white"/>
<rect x="20.5527" y="0.277344" width="32" height="32" rx="16" fill="#00AEEF"/>
<path fill-rule="evenodd" clip-rule="evenodd" d="M37.7393 14.9142L37.6469 14.9329V17.5187L37.7393 17.5374C40.4179 18.0948 42.362 20.4923 42.362 23.238V24.0781C42.362 24.6825 41.8713 25.1746 41.2678 25.1746C40.6643 25.1746 40.1736 24.6825 40.1736 24.0781V23.238C40.1736 22.2332 39.7732 21.2988 39.0465 20.6066C38.3675 19.9601 37.4894 19.6118 36.5527 19.6096C35.6161 19.6118 34.738 19.9601 34.059 20.6066C33.3323 21.2988 32.9319 22.2332 32.9319 23.238V24.0781C32.9319 24.6825 32.4412 25.1746 31.8377 25.1746C31.2342 25.1746 30.7435 24.6825 30.7435 24.0781V23.238C30.7435 20.4923 32.6876 18.0948 35.3662 17.5378L35.4586 17.5191V14.9333L35.3662 14.9146C32.6876 14.3572 30.7435 11.9597 30.7435 9.21395V8.37391C30.7435 7.76954 31.2342 7.27734 31.8377 7.27734C32.4412 7.27734 32.9319 7.76954 32.9319 8.37391V9.21395C32.9319 10.2188 33.3323 11.1532 34.059 11.8454C34.738 12.4919 35.6161 12.8402 36.5527 12.8424C37.4894 12.8402 38.3675 12.4919 39.0465 11.8454C39.7732 11.1532 40.1736 10.2188 40.1736 9.21395V8.37391C40.1736 7.76954 40.6643 7.27734 41.2678 7.27734C41.8708 7.27734 42.362 7.76954 42.362 8.37391V9.21352C42.362 11.9593 40.4179 14.3568 37.7393 14.9142ZM36.5533 25.2773C37.7203 25.2773 38.6661 24.3295 38.6661 23.1599C38.6661 21.9907 37.7203 21.0424 36.5533 21.0424C35.3862 21.0424 34.4404 21.9902 34.4404 23.1599C34.4404 24.3295 35.3862 25.2773 36.5533 25.2773Z" fill="white"/>
</svg>
