<svg width="33" height="33" viewBox="0 0 33 33" fill="none" xmlns="http://www.w3.org/2000/svg">
<circle cx="16.0527" cy="16.2773" r="16" fill="#E3E4E7"/>
<path fill-rule="evenodd" clip-rule="evenodd" d="M17.8555 21.2668C18.7624 21.0475 19.6371 20.6665 20.4427 20.1293C21.0524 19.7211 21.2361 18.8655 20.8519 18.2181C20.4681 17.5694 19.6627 17.3741 19.0519 17.7823C17.2269 19.0008 14.8772 19.0005 13.0532 17.7823C12.4424 17.3741 11.6368 17.5694 11.2537 18.2181C10.8695 18.866 11.0527 19.7211 11.6624 20.1293C12.468 20.6659 13.3427 21.0475 14.2496 21.2668L11.7586 23.9116C11.2494 24.4528 11.2494 25.3303 11.7591 25.8715C12.0143 26.1418 12.348 26.2771 12.6818 26.2771C13.0161 26.2771 13.3504 26.1418 13.6055 25.8715L16.0523 23.2725L18.5012 25.8715C19.0104 26.4126 19.8365 26.4126 20.3462 25.8715C20.8565 25.3303 20.8565 24.4523 20.3462 23.9116L17.8555 21.2668ZM16.0527 15.9857C18.3865 15.9857 20.2835 14.0329 20.2835 11.6322C20.2835 9.23068 18.3865 7.27734 16.0527 7.27734C13.7195 7.27734 11.822 9.23068 11.822 11.6322C11.822 14.0329 13.7195 15.9857 16.0527 15.9857ZM16.0527 9.65234C17.1132 9.65234 17.9758 10.54 17.9758 11.6317C17.9758 12.7224 17.1132 13.6107 16.0527 13.6107C14.9931 13.6107 14.1297 12.7224 14.1297 11.6317C14.1297 10.54 14.9931 9.65234 16.0527 9.65234Z" fill="white"/>
</svg>
