<svg width="33" height="33" viewBox="0 0 33 33" fill="none" xmlns="http://www.w3.org/2000/svg">
<circle cx="16.0527" cy="16.2773" r="16" fill="#E3E4E7"/>
<path fill-rule="evenodd" clip-rule="evenodd" d="M7.2167 15.7467C11.7792 13.6365 14.8165 12.2344 16.3416 11.5541C20.6825 9.62441 21.595 9.29123 22.1816 9.27734C22.3119 9.27734 22.5987 9.30511 22.7943 9.4717C22.9507 9.61053 22.9898 9.79101 23.0159 9.92984C23.0419 10.0687 23.068 10.3602 23.0419 10.5823C22.8073 13.2201 21.7905 19.62 21.2691 22.5632C21.0475 23.8126 20.6173 24.2291 20.2002 24.2707C19.2877 24.354 18.5968 23.6321 17.7234 23.0213C16.3416 22.0634 15.5725 21.4664 14.2299 20.5224C12.6786 19.4395 13.6824 18.8426 14.5688 17.8708C14.8034 17.6209 18.8054 13.7337 18.8836 13.3866C18.8966 13.345 18.8966 13.1784 18.8054 13.0951C18.7141 13.0118 18.5838 13.0396 18.4795 13.0673C18.3361 13.0951 16.1461 14.65 11.8835 17.7181C11.2577 18.1762 10.6972 18.3983 10.1888 18.3844C9.62829 18.3706 8.55937 18.0513 7.75116 17.7736C6.77349 17.4404 5.99135 17.2599 6.05653 16.6769C6.09564 16.3714 6.48671 16.066 7.2167 15.7467Z" fill="white"/>
</svg>
