<svg width="33" height="33" viewBox="0 0 33 33" fill="none" xmlns="http://www.w3.org/2000/svg">
<circle cx="16.0527" cy="16.2773" r="16" fill="#E3E4E7"/>
<path d="M25.9467 21.2116C25.9224 21.1612 25.8999 21.1195 25.8789 21.0861C25.5319 20.4836 24.8688 19.7441 23.89 18.8675L23.8693 18.8474L23.8589 18.8375L23.8485 18.8274H23.838C23.3937 18.4192 23.1124 18.1447 22.9946 18.0042C22.7791 17.7365 22.7308 17.4655 22.8486 17.191C22.9318 16.9835 23.2445 16.5454 23.7858 15.8761C24.0705 15.5214 24.296 15.2371 24.4626 15.0229C25.6636 13.4836 26.1844 12.5 26.0246 12.0717L25.9626 11.9716C25.9209 11.9113 25.8133 11.8562 25.6399 11.8059C25.4662 11.7557 25.2441 11.7474 24.9733 11.7809L21.9744 11.8009C21.9258 11.7843 21.8564 11.7858 21.766 11.8059C21.6758 11.826 21.6306 11.8361 21.6306 11.8361L21.5784 11.8613L21.537 11.8915C21.5023 11.9114 21.4641 11.9466 21.4224 11.9968C21.3809 12.0468 21.3463 12.1055 21.3185 12.1724C20.992 12.9822 20.6208 13.735 20.2042 14.431C19.9473 14.846 19.7114 15.2056 19.496 15.5101C19.2808 15.8145 19.1003 16.0388 18.9546 16.1826C18.8088 16.3265 18.6771 16.4418 18.5588 16.5288C18.4408 16.616 18.3507 16.6528 18.2883 16.6393C18.2257 16.6258 18.1668 16.6125 18.111 16.5991C18.0139 16.5389 17.9358 16.4569 17.8769 16.3532C17.8177 16.2495 17.7779 16.1189 17.7571 15.9617C17.7364 15.8043 17.7241 15.6689 17.7206 15.5551C17.7174 15.4414 17.7188 15.2807 17.7259 15.0732C17.7331 14.8657 17.7364 14.7252 17.7364 14.6516C17.7364 14.3973 17.7415 14.1212 17.7518 13.8235C17.7623 13.5257 17.7708 13.2897 17.7779 13.1159C17.785 12.9419 17.7883 12.7578 17.7883 12.5637C17.7883 12.3696 17.776 12.2174 17.7518 12.1069C17.7279 11.9966 17.6912 11.8895 17.6428 11.7857C17.5941 11.682 17.5228 11.6017 17.4293 11.5448C17.3356 11.4879 17.2191 11.4428 17.0805 11.4092C16.7125 11.3289 16.2439 11.2855 15.6746 11.2788C14.3834 11.2654 13.5538 11.3458 13.1858 11.5198C13.0401 11.5933 12.9081 11.6938 12.7902 11.8208C12.6652 11.9681 12.6478 12.0485 12.738 12.0617C13.1546 12.1219 13.4495 12.2658 13.6231 12.4933L13.6856 12.6138C13.7343 12.7008 13.7828 12.8548 13.8315 13.0756C13.88 13.2964 13.9113 13.5407 13.9251 13.8082C13.9598 14.2968 13.9598 14.7151 13.9251 15.063C13.8904 15.4111 13.8575 15.6821 13.8262 15.8761C13.7949 16.0702 13.7481 16.2275 13.6856 16.3479C13.6231 16.4684 13.5814 16.542 13.5606 16.5687C13.5398 16.5954 13.5224 16.6123 13.5086 16.6189C13.4184 16.6522 13.3245 16.6692 13.2274 16.6692C13.1301 16.6692 13.0122 16.6223 12.8734 16.5286C12.7346 16.4348 12.5906 16.3061 12.4413 16.1421C12.292 15.9781 12.1236 15.7489 11.9361 15.4544C11.7488 15.16 11.5544 14.8121 11.3531 14.4105L11.1865 14.1194C11.0824 13.932 10.9401 13.6593 10.7596 13.3013C10.579 12.9432 10.4194 12.5968 10.2806 12.2622C10.2251 12.1217 10.1418 12.0147 10.0307 11.9411L9.97859 11.9109C9.94394 11.8841 9.88832 11.8558 9.81202 11.8255C9.73561 11.7953 9.65588 11.7737 9.57251 11.7603L6.7193 11.7803C6.42774 11.7803 6.22992 11.844 6.12575 11.9712L6.08406 12.0313C6.06324 12.0648 6.05273 12.1183 6.05273 12.192C6.05273 12.2656 6.07356 12.356 6.11525 12.463C6.53176 13.4066 6.98471 14.3167 7.4741 15.1934C7.96349 16.0701 8.38876 16.7762 8.74965 17.3113C9.11062 17.8467 9.47855 18.3521 9.85345 18.8271C10.2284 19.3022 10.4765 19.6067 10.5979 19.7405C10.7195 19.8746 10.815 19.9748 10.8844 20.0417L11.1448 20.2825C11.3114 20.4432 11.556 20.6356 11.8788 20.8597C12.2017 21.084 12.5592 21.3048 12.9514 21.5225C13.3437 21.7398 13.8001 21.9171 14.3208 22.0543C14.8415 22.1916 15.3482 22.2467 15.8411 22.2201H17.0387C17.2815 22.1999 17.4655 22.1263 17.5906 21.9992L17.632 21.9489C17.6599 21.9089 17.686 21.8469 17.7101 21.7634C17.7344 21.6797 17.7465 21.5876 17.7465 21.4873C17.7394 21.1996 17.7621 20.9403 17.8141 20.7095C17.866 20.4787 17.9251 20.3047 17.9913 20.1875C18.0574 20.0704 18.132 19.9716 18.2151 19.8915C18.2983 19.8113 18.3576 19.7626 18.3924 19.7459C18.427 19.7291 18.4546 19.7176 18.4754 19.7108C18.642 19.6573 18.8381 19.7091 19.064 19.8665C19.2896 20.0238 19.5013 20.218 19.6992 20.4487C19.8971 20.6797 20.1348 20.9389 20.4124 21.2266C20.6903 21.5144 20.9332 21.7284 21.1413 21.8691L21.3495 21.9896C21.4886 22.0699 21.6691 22.1435 21.8913 22.2105C22.113 22.2773 22.3074 22.2941 22.4742 22.2606L25.1399 22.2205C25.4036 22.2205 25.6087 22.1785 25.7542 22.095C25.9001 22.0113 25.9867 21.9192 26.0146 21.8189C26.0425 21.7186 26.044 21.6047 26.0199 21.4775C25.9952 21.3505 25.9709 21.2617 25.9467 21.2116Z" fill="white"/>
</svg>
